<?xml version="1.0" standalone="no"?>
<!DOCTYPE svg PUBLIC "-//W3C//DTD SVG 20010904//EN"
 "http://www.w3.org/TR/2001/REC-SVG-20010904/DTD/svg10.dtd">
<svg version="1.0" xmlns="http://www.w3.org/2000/svg"
 width="1691.000000pt" height="1607.000000pt" viewBox="0 0 1691.000000 1607.000000"
 preserveAspectRatio="xMidYMid meet">

<g transform="translate(0.000000,1607.000000) scale(0.100000,-0.100000)"
fill="#000000" stroke="none">
<path d="M4888 16059 c-597 -74 -1179 -559 -1564 -1304 -221 -426 -374 -928
-443 -1450 -34 -259 -44 -421 -44 -715 0 -296 9 -450 44 -729 18 -149 19 -165
5 -173 -9 -5 -60 -43 -114 -85 -642 -500 -1066 -1175 -1222 -1943 -47 -232
-63 -389 -62 -640 0 -300 24 -507 98 -815 l26 -110 -66 -115 c-149 -260 -258
-582 -302 -895 -23 -163 -23 -468 0 -630 27 -194 78 -389 141 -551 l33 -85
-61 -97 c-232 -368 -386 -803 -443 -1249 -22 -173 -22 -513 0 -688 22 -169 60
-352 101 -490 l34 -110 -54 -135 c-69 -173 -128 -368 -164 -545 -51 -246 -56
-302 -56 -595 1 -242 3 -289 23 -395 30 -159 65 -286 118 -422 24 -61 44 -114
44 -117 0 -3 -166 -6 -368 -6 -405 0 -424 -2 -494 -60 -20 -17 -49 -55 -64
-86 -25 -52 -27 -61 -21 -157 9 -173 73 -319 197 -447 98 -101 208 -165 351
-201 46 -12 1227 -14 7899 -14 7435 0 7848 1 7910 17 123 34 226 94 320 188
130 130 190 252 212 429 10 73 9 95 -6 144 -19 67 -69 127 -130 160 -40 21
-52 22 -429 25 -214 2 -387 6 -385 10 75 167 143 402 175 603 27 175 24 516
-6 719 -38 257 -111 523 -208 769 l-46 113 32 112 c78 279 108 470 118 746 20
616 -150 1205 -506 1756 -12 18 -8 34 29 134 51 141 102 337 127 490 27 176
25 549 -5 725 -53 308 -155 595 -300 848 l-61 105 20 73 c30 118 66 303 85
444 25 180 25 617 1 797 -120 894 -567 1660 -1284 2205 -93 70 -112 89 -108
107 7 32 33 245 47 391 17 176 17 781 0 950 -63 621 -194 1115 -422 1591 -447
936 -1188 1480 -1910 1404 -652 -69 -1331 -557 -1895 -1362 -40 -57 -75 -98
-85 -98 -9 0 -39 7 -66 15 -91 27 -307 73 -464 99 -533 88 -1072 87 -1615 -5
-98 -16 -351 -71 -441 -95 -18 -5 -35 14 -109 118 -158 221 -276 360 -474 559
-319 318 -568 497 -877 630 -273 117 -575 168 -816 138z m270 -754 c80 -9 204
-51 317 -107 487 -242 983 -810 1346 -1542 54 -109 100 -203 101 -208 3 -8
664 274 681 291 4 4 -11 47 -33 96 -28 60 -37 91 -29 95 6 4 68 17 137 29 545
96 1057 91 1575 -15 66 -13 122 -26 124 -28 2 -2 -15 -42 -37 -90 l-40 -87 33
-14 c17 -7 163 -70 322 -140 160 -70 300 -131 312 -135 20 -8 28 4 111 174
114 234 186 359 327 571 317 477 669 819 1030 1000 166 83 287 116 430 116
114 0 183 -16 289 -65 444 -205 849 -810 1039 -1551 107 -416 152 -880 129
-1323 -17 -331 -41 -517 -112 -891 -17 -85 -29 -155 -27 -156 1 -1 63 -37 137
-80 74 -43 169 -101 210 -128 622 -415 1024 -1044 1125 -1760 56 -399 11 -806
-135 -1230 -27 -79 -50 -149 -50 -154 0 -6 35 -57 78 -114 102 -136 141 -197
206 -327 191 -382 235 -797 126 -1201 -40 -148 -102 -288 -221 -503 l-49 -88
102 -128 c301 -376 465 -736 534 -1167 25 -153 25 -468 0 -625 -32 -207 -77
-371 -156 -564 -22 -55 -40 -106 -40 -113 0 -8 27 -65 59 -126 155 -292 253
-622 281 -952 34 -393 -68 -765 -285 -1037 l-45 -58 -1245 0 -1245 0 0 2038
c0 1306 -4 2069 -10 2127 -42 367 -254 679 -573 840 -98 49 -217 89 -317 105
-44 6 -1100 10 -3220 10 -3052 0 -3158 -1 -3245 -19 -249 -52 -465 -181 -614
-366 -103 -128 -165 -251 -214 -423 l-22 -77 -3 -2117 -2 -2118 -1249 0 -1249
0 -54 73 c-205 273 -287 549 -275 932 10 356 105 705 282 1043 l65 122 -50
125 c-122 305 -170 553 -170 870 1 354 72 658 230 980 81 165 170 304 304 473
53 68 101 131 107 140 8 13 -5 45 -64 153 -122 223 -181 374 -224 579 -26 122
-26 498 0 620 60 286 165 512 356 768 l90 120 -64 189 c-113 331 -151 585
-142 937 9 385 86 694 256 1031 134 265 288 472 508 686 190 184 372 315 656
473 37 21 67 44 67 51 0 7 -15 94 -34 192 -77 403 -106 692 -106 1060 0 283
10 430 46 678 126 879 531 1635 1039 1937 104 62 219 102 325 111 36 4 66 2
158 -8z m6455 -9985 c74 -28 130 -79 166 -152 l31 -61 0 -2049 0 -2048 -3355
0 -3355 0 2 2053 3 2052 27 51 c15 28 49 71 77 96 94 85 -234 77 3248 77 3083
1 3103 1 3156 -19z"/>
<path d="M6256 10209 c-87 -12 -219 -56 -294 -100 -91 -54 -229 -199 -279
-294 -68 -129 -88 -216 -87 -370 1 -113 4 -141 28 -215 68 -209 210 -374 401
-465 117 -56 183 -70 335 -69 126 0 141 2 230 32 126 44 220 104 312 200 227
238 278 571 131 867 -139 283 -462 455 -777 414z m177 -183 c38 -16 83 -59
104 -100 19 -37 19 -135 0 -172 -57 -109 -197 -147 -297 -80 -46 30 -90 109
-90 162 0 143 152 246 283 190z"/>
<path d="M10468 10209 c-164 -21 -308 -91 -429 -207 -159 -151 -239 -335 -239
-547 1 -440 366 -788 800 -762 123 7 193 26 309 83 170 84 313 251 377 439 39
115 45 295 15 415 -79 317 -336 543 -661 580 -47 5 -89 9 -95 9 -5 -1 -40 -5
-77 -10z m180 -188 c72 -37 112 -102 112 -181 0 -112 -88 -200 -200 -200 -213
0 -276 283 -85 383 42 23 127 21 173 -2z"/>
<path d="M8273 8879 c-198 -20 -425 -99 -569 -197 -75 -50 -181 -162 -216
-228 -99 -183 -68 -383 85 -550 120 -131 324 -237 550 -285 65 -14 66 -18 42
-109 -26 -96 -74 -181 -144 -251 -82 -81 -145 -113 -226 -113 -92 -1 -160 36
-265 145 -94 97 -133 119 -210 119 -167 0 -277 -172 -206 -322 23 -48 143
-176 219 -234 80 -61 201 -119 301 -144 194 -49 412 -4 590 124 61 44 183 165
223 221 l21 30 23 -30 c12 -17 53 -60 89 -97 274 -273 645 -313 959 -104 93
62 225 197 257 263 22 44 26 63 22 117 -7 117 -86 197 -203 204 -97 6 -127 -9
-224 -110 -103 -108 -179 -151 -269 -152 -155 -2 -329 174 -376 380 l-13 61
94 26 c468 132 704 474 548 792 -148 302 -623 493 -1102 444z m325 -445 c25
-17 31 -71 10 -92 -9 -9 -100 -12 -349 -12 -338 0 -338 0 -353 22 -22 31 -20
45 9 73 l24 25 318 0 c272 0 322 -2 341 -16z"/>
<path d="M8896 4372 c-34 -11 -69 -34 -107 -72 -51 -49 -125 -173 -665 -1109
-334 -580 -614 -1073 -622 -1095 -52 -143 21 -319 163 -394 44 -24 61 -27 145
-27 84 0 101 3 146 27 28 15 71 49 94 75 46 52 1230 2095 1262 2178 30 75 22
192 -17 264 -77 141 -244 205 -399 153z"/>
<path d="M6880 4211 c-14 -4 -43 -17 -65 -29 -41 -21 -451 -396 -610 -557
-151 -153 -259 -321 -305 -474 -41 -135 -15 -312 67 -449 53 -90 106 -146 468
-492 355 -339 373 -352 490 -358 93 -5 166 22 240 89 74 68 110 143 110 229 0
110 -20 137 -259 370 -116 112 -275 268 -354 345 l-143 141 360 347 c301 291
365 357 387 404 70 142 1 318 -157 403 -51 27 -76 34 -133 36 -39 2 -82 0 -96
-5z"/>
<path d="M9780 4211 c-53 -17 -114 -54 -155 -97 -61 -63 -89 -124 -93 -209 -7
-123 7 -141 416 -535 193 -188 352 -345 352 -349 0 -5 -26 -32 -57 -62 -32
-29 -189 -181 -350 -337 -338 -328 -348 -341 -341 -464 4 -90 33 -151 100
-214 73 -68 125 -88 233 -89 80 0 95 3 140 28 60 34 693 635 770 733 104 130
149 257 148 414 -1 151 -54 289 -155 405 -80 92 -692 691 -740 723 -26 18 -66
39 -89 47 -44 16 -137 19 -179 6z"/>
</g>
</svg>
